{
  "source": "C:\\Users\\Peter\\Desktop\\stuff\\MIUN\\quantitative_research\\video_compression\\videos\\BVI-HD\\BVI-HD_CDVL_videos\\ORIG\\FishAndRock_1920x1080_30fps.mp4",
  "output": "C:\\Users\\Peter\\Desktop\\stuff\\MIUN\\quantitative_research\\video_compression\\compressed_videos\\BVI-HD\\av1\\8\\FishAndRock_1920x1080_30fps_av1.mkv",
  "codec": "av1",
  "ok": "Input #0, mov,mp4,m4a,3gp,3g2,mj2, from 'C:\\Users\\Peter\\Desktop\\stuff\\MIUN\\quantitative_research\\video_compression\\videos\\BVI-HD\\BVI-HD_CDVL_videos\\ORIG\\FishAndRock_1920x1080_30fps.mp4':\n  Metadata:\n    major_brand     : isom\n    minor_version   : 512\n    compatible_brands: isomiso2avc1mp41\n    encoder         : Lavf54.28.101\n  Duration: 00:00:05.00, start: 0.000000, bitrate: 251564 kb/s\n  Stream #0:0[0x1](und): Video: h264 (High 4:4:4 Predictive) (avc1 / 0x31637661), yuv420p(progressive), 1920x1080, 251561 kb/s, 30 fps, 30 tbr, 30 tbn (default)\n    Metadata:\n      handler_name    : VideoHandler\n      vendor_id       : [0][0][0][0]\n[out#0/matroska @ 0000027e8c088fc0] Codec AVOption b:a (set bitrate (in bits/s)) has not been used for any stream. The most likely reason is either wrong type (e.g. a video option with no video streams) or that it is a private option of some decoder which was not actually used for any stream.\nStream mapping:\n  Stream #0:0 -> #0:0 (h264 (native) -> av1 (libsvtav1))\nPress [q] to stop, [?] for help\nSvt[info]: -------------------------------------------\nSvt[info]: SVT [version]:\tSVT-AV1 Encoder Lib v3.1.0-19-g6ecfe8ec\nSvt[info]: SVT [build]  :\tGCC 15.2.0\t 64 bit\nSvt[info]: LIB Build date: Aug 17 2025 11:37:13\nSvt[info]: -------------------------------------------\nSvt[info]: Level of Parallelism: 5\nSvt[info]: Number of PPCS 93\nSvt[info]: [asm level on system : up to avx2]\nSvt[info]: [asm level selected : up to avx2]\nSvt[info]: -------------------------------------------\nSvt[info]: SVT [config]: main profile\ttier (auto)\tlevel (auto)\nSvt[info]: SVT [config]: width / height / fps numerator / fps denominator \t\t: 1920 / 1080 / 30 / 1\nSvt[info]: SVT [config]: bit-depth / color format \t\t\t\t\t: 8 / YUV420\nSvt[info]: SVT [config]: preset / tune / pred struct \t\t\t\t\t: 4 / PSNR / random access\nSvt[info]: SVT [config]: gop size / mini-gop size / key-frame type \t\t\t: 161 / 16 / key frame\nSvt[info]: SVT [config]: BRC mode / target bitrate (kbps)\t\t\t\t: VBR / 8000 \nSvt[info]: SVT [config]: AQ mode / Variance Boost \t\t\t\t\t: 2 / 0\nSvt[info]: SVT [config]: sharpness / luminance-based QP bias \t\t\t\t: 0 / 0\nSvt[info]: SVT [config]: QP scale compress strength \t\t\t\t\t: 0\nSvt[info]: -------------------------------------------\nOutput #0, matroska, to 'C:\\Users\\Peter\\Desktop\\stuff\\MIUN\\quantitative_research\\video_compression\\compressed_videos\\BVI-HD\\av1\\8\\FishAndRock_1920x1080_30fps_av1.mkv':\n  Metadata:\n    major_brand     : isom\n    minor_version   : 512\n    compatible_brands: isomiso2avc1mp41\n    encoder         : Lavf62.3.100\n  Stream #0:0(und): Video: av1 (AV01 / 0x31305641), yuv420p(tv, progressive), 1920x1080, q=2-31, 8000 kb/s, 30 fps, 1k tbn (default)\n    Metadata:\n      encoder         : Lavc62.11.100 libsvtav1\n      handler_name    : VideoHandler\n      vendor_id       : [0][0][0][0]\n    Side data:\n      cpb: bitrate max/min/avg: 0/0/8000000 buffer size: 8000000 vbv_delay: N/A\nframe=    0 fps=0.0 q=0.0 size=       0KiB time=N/A bitrate=N/A speed=N/A elapsed=0:00:01.05    \nframe=    0 fps=0.0 q=0.0 size=       0KiB time=N/A bitrate=N/A speed=N/A elapsed=0:00:01.84    \nframe=    0 fps=0.0 q=0.0 size=       0KiB time=N/A bitrate=N/A speed=N/A elapsed=0:00:02.41    \nframe=    0 fps=0.0 q=0.0 size=       0KiB time=N/A bitrate=N/A speed=N/A elapsed=0:00:02.97    \nframe=    0 fps=0.0 q=0.0 size=       0KiB time=N/A bitrate=N/A speed=N/A elapsed=0:00:03.49    \nframe=    1 fps=0.2 q=8.0 size=       1KiB time=00:00:00.00 bitrate=N/A speed=   0x elapsed=0:00:04.03    \nframe=    1 fps=0.2 q=8.0 size=       1KiB time=00:00:00.00 bitrate=N/A speed=   0x elapsed=0:00:04.54    \nframe=    1 fps=0.2 q=8.0 size=       1KiB time=00:00:00.00 bitrate=N/A speed=   0x elapsed=0:00:05.10    \nframe=    1 fps=0.2 q=8.0 size=       1KiB time=00:00:00.00 bitrate=N/A speed=   0x elapsed=0:00:05.66    \nframe=    5 fps=0.8 q=18.0 size=       1KiB time=00:00:00.10 bitrate=  57.0kbits/s speed=0.0162x elapsed=0:00:06.18    \nframe=    7 fps=1.0 q=18.0 size=       1KiB time=00:00:00.20 bitrate=  28.5kbits/s speed=0.0296x elapsed=0:00:06.75    \nframe=    9 fps=1.2 q=15.0 size=       1KiB time=00:00:00.26 bitrate=  21.4kbits/s speed=0.0367x elapsed=0:00:07.27    \nframe=   12 fps=1.5 q=15.0 size=       1KiB time=00:00:00.36 bitrate=  15.6kbits/s speed=0.0466x elapsed=0:00:07.86    \nframe=   14 fps=1.7 q=15.0 size=       1KiB time=00:00:00.43 bitrate=  13.2kbits/s speed=0.0515x elapsed=0:00:08.40    \nframe=   18 fps=2.0 q=15.0 size=       1KiB time=00:00:00.56 bitrate=  10.1kbits/s speed=0.0634x elapsed=0:00:08.93    \nframe=   20 fps=2.1 q=15.0 size=       1KiB time=00:00:00.63 bitrate=   9.0kbits/s speed=0.0671x elapsed=0:00:09.44    \nframe=   23 fps=2.3 q=14.0 size=       1KiB time=00:00:00.73 bitrate=   7.8kbits/s speed=0.0732x elapsed=0:00:10.01    \nframe=   27 fps=2.5 q=15.0 size=       1KiB time=00:00:00.86 bitrate=   6.6kbits/s speed=0.0815x elapsed=0:00:10.63    \nframe=   30 fps=2.7 q=18.0 size=       1KiB time=00:00:00.93 bitrate=   6.1kbits/s speed=0.0835x elapsed=0:00:11.17    \nframe=   35 fps=3.0 q=18.0 size=       1KiB time=00:00:01.13 bitrate=   5.0kbits/s speed=0.0968x elapsed=0:00:11.70    \nframe=   38 fps=3.1 q=17.0 size=       1KiB time=00:00:01.23 bitrate=   4.6kbits/s speed=0.101x elapsed=0:00:12.22    \nframe=   40 fps=3.1 q=17.0 size=       1KiB time=00:00:01.30 bitrate=   4.4kbits/s speed=0.102x elapsed=0:00:12.80    \nframe=   44 fps=3.3 q=17.0 size=       1KiB time=00:00:01.40 bitrate=   4.1kbits/s speed=0.105x elapsed=0:00:13.36    \nframe=   48 fps=3.5 q=19.0 size=       1KiB time=00:00:01.56 bitrate=   3.6kbits/s speed=0.113x elapsed=0:00:13.88    \nframe=   51 fps=3.5 q=19.0 size=       1KiB time=00:00:01.66 bitrate=   3.4kbits/s speed=0.116x elapsed=0:00:14.41    \nframe=   57 fps=3.8 q=12.0 size=       1KiB time=00:00:01.86 bitrate=   3.1kbits/s speed=0.125x elapsed=0:00:14.92    \nframe=   59 fps=3.8 q=18.0 size=       1KiB time=00:00:01.93 bitrate=   3.0kbits/s speed=0.125x elapsed=0:00:15.47    \nframe=   63 fps=3.9 q=18.0 size=       1KiB time=00:00:02.06 bitrate=   2.8kbits/s speed=0.129x elapsed=0:00:16.05    \nframe=   69 fps=4.1 q=18.0 size=       1KiB time=00:00:02.26 bitrate=   2.5kbits/s speed=0.136x elapsed=0:00:16.63    \nframe=   73 fps=4.3 q=14.0 size=       1KiB time=00:00:02.40 bitrate=   2.4kbits/s speed=0.14x elapsed=0:00:17.17    \nframe=   75 fps=4.2 q=18.0 size=       1KiB time=00:00:02.46 bitrate=   2.3kbits/s speed=0.139x elapsed=0:00:17.69    \nframe=   79 fps=4.3 q=18.0 size=       1KiB time=00:00:02.53 bitrate=   2.3kbits/s speed=0.139x elapsed=0:00:18.23    \nframe=   83 fps=4.4 q=20.0 size=       1KiB time=00:00:02.73 bitrate=   2.1kbits/s speed=0.145x elapsed=0:00:18.81    \nframe=   87 fps=4.5 q=15.0 size=       1KiB time=00:00:02.86 bitrate=   2.0kbits/s speed=0.148x elapsed=0:00:19.33    \nframe=   89 fps=4.5 q=14.0 size=       1KiB time=00:00:02.93 bitrate=   1.9kbits/s speed=0.148x elapsed=0:00:19.85    \nframe=   93 fps=4.6 q=15.0 size=       1KiB time=00:00:03.06 bitrate=   1.9kbits/s speed=0.15x elapsed=0:00:20.40    \nframe=   97 fps=4.6 q=7.0 size=       1KiB time=00:00:03.20 bitrate=   1.8kbits/s speed=0.153x elapsed=0:00:20.97    \nframe=  101 fps=4.7 q=18.0 size=       1KiB time=00:00:03.33 bitrate=   1.7kbits/s speed=0.155x elapsed=0:00:21.53    \nframe=  105 fps=4.8 q=15.0 size=       1KiB time=00:00:03.46 bitrate=   1.6kbits/s speed=0.157x elapsed=0:00:22.07    \nframe=  109 fps=4.8 q=15.0 size=       1KiB time=00:00:03.60 bitrate=   1.6kbits/s speed=0.159x elapsed=0:00:22.63    \nframe=  113 fps=4.9 q=8.0 size=       1KiB time=00:00:03.73 bitrate=   1.5kbits/s speed=0.161x elapsed=0:00:23.17    \nframe=  117 fps=4.9 q=18.0 size=       1KiB time=00:00:03.86 bitrate=   1.5kbits/s speed=0.163x elapsed=0:00:23.76    \nframe=  121 fps=5.0 q=15.0 size=       1KiB time=00:00:04.00 bitrate=   1.4kbits/s speed=0.165x elapsed=0:00:24.30    \nframe=  123 fps=4.9 q=20.0 size=       1KiB time=00:00:04.00 bitrate=   1.4kbits/s speed=0.161x elapsed=0:00:24.86    \nframe=  125 fps=4.9 q=18.0 size=       1KiB time=00:00:04.13 bitrate=   1.4kbits/s speed=0.162x elapsed=0:00:25.44    \nframe=  129 fps=5.0 q=8.0 size=       1KiB time=00:00:04.20 bitrate=   1.4kbits/s speed=0.162x elapsed=0:00:25.96    \nframe=  131 fps=4.9 q=22.0 size=       1KiB time=00:00:04.33 bitrate=   1.3kbits/s speed=0.163x elapsed=0:00:26.52    \nframe=  135 fps=5.0 q=22.0 size=       1KiB time=00:00:04.40 bitrate=   1.3kbits/s speed=0.162x elapsed=0:00:27.10    \nframe=  137 fps=4.9 q=18.0 size=       1KiB time=00:00:04.53 bitrate=   1.3kbits/s speed=0.164x elapsed=0:00:27.68    \nframe=  141 fps=5.0 q=22.0 size=       1KiB time=00:00:04.66 bitrate=   1.2kbits/s speed=0.165x elapsed=0:00:28.24    \n[out#0/matroska @ 0000027e8c088fc0] video:4580KiB audio:0KiB subtitle:0KiB other streams:0KiB global headers:0KiB muxing overhead: 0.031512%\nframe=  150 fps=5.2 q=22.0 Lsize=    4582KiB time=00:00:04.96 bitrate=7557.2kbits/s speed=0.173x elapsed=0:00:28.68    \n",
  "seconds": 29.216296434402466,
  "probe_out": {}
}